<?xml version="1.0" encoding="UTF-8"?>
<svg width="32px" height="32px" viewBox="0 0 32 32" version="1.1" xmlns="http://www.w3.org/2000/svg">
    <title>CyberVisible Favicon</title>
    <defs>
        <linearGradient x1="0%" y1="0%" x2="100%" y2="100%" id="gradient">
            <stop stop-color="#6366F1" offset="0%"></stop>
            <stop stop-color="#8B5CF6" offset="100%"></stop>
        </linearGradient>
    </defs>
    <g stroke="none" stroke-width="1" fill="none" fill-rule="evenodd">
        <rect fill="url(#gradient)" x="0" y="0" width="32" height="32" rx="8"></rect>
        <path d="M16,8 C19.3137085,8 22,10.6862915 22,14 C22,15.5976809 21.3754995,17.0472068 20.3521577,18.0704946 L22.7071068,20.4254437 C23.0976311,20.815968 23.0976311,21.4491322 22.7071068,21.8396565 C22.3165825,22.2301808 21.6834175,22.2301808 21.2928932,21.8396565 L18.9379441,19.4847074 C17.9146564,20.5080492 16.4651304,21.1325497 14.8674495,21.1325497 C11.553741,21.1325497 8.86744953,18.4462582 8.86744953,15.1325497 C8.86744953,11.8188412 11.553741,9.13254975 14.8674495,9.13254975 C15.2816823,9.13254975 15.6867422,9.17448161 16.0789394,9.25451314 C13.7077026,9.7309452 12,11.6813168 12,14 C12,16.7614237 14.2385763,19 17,19 C19.7614237,19 22,16.7614237 22,14 C22,12.5527864 21.3748501,11.2503956 20.3620254,10.3633249 C20.7578603,9.66271436 21,8.85711732 21,8 L16,8 Z" fill="#FFFFFF" fill-rule="nonzero"></path>
    </g>
</svg>
